Coordinates
nRows=7
nColumns=38

# SIMM Motion File Header:
name Coordinates
datacolumns 38
datarows 7
otherdata 1
range 1.23100000000000010000 1.23700000000000010000

Units are S.I. units (second, meters, Newtons, ...)
Angles are in degrees.

endheader
time	pelvis_tilt	pelvis_list	pelvis_rotation	pelvis_tx	pelvis_ty	pelvis_tz	hip_flexion_r	hip_adduction_r	hip_rotation_r	knee_angle_r	ankle_angle_r	subtalar_angle_r	mtp_angle_r	hip_flexion_l	hip_adduction_l	hip_rotation_l	knee_angle_l	ankle_angle_l	subtalar_angle_l	mtp_angle_l	lumbar_extension	lumbar_bending	lumbar_rotation	arm_flex_r	arm_add_r	arm_rot_r	elbow_flex_r	pro_sup_r	wrist_flex_r	wrist_dev_r	arm_flex_l	arm_add_l	arm_rot_l	elbow_flex_l	pro_sup_l	wrist_flex_l	wrist_dev_l
      1.23100000000000010000	    -11.88395029269914000000	     -0.56595359932540112000	     -7.65869001472830660000	      1.02424870342444780000	      1.03977644441410710000	     -0.33796804138951980000	     31.76903632422558500000	      6.45638778134555390000	      5.19624475912095640000	     -8.20567926103846370000	      4.27516798976567000000	      0.00000000000000000000	      0.00000000000000000000	     -1.44054475805765270000	      3.91081840841613240000	     -0.54290101324265205000	    -47.92670050977721300000	    -13.91395976895868500000	      0.00000000000000000000	      0.00000000000000000000	      4.02132780880484300000	      3.62040739140454850000	     -2.92673958996005860000	    -46.61216168023544500000	    -19.14099743328862900000	    -13.95940869250518400000	    109.57952289531234000000	    107.09996138299799000000	      0.00000000000000000000	      0.00000000000000000000	    -33.51917088996844300000	    -14.09999968335471400000	     -7.22958869595320590000	    131.36296359146178000000	    101.60798702970955000000	      0.00000000000000000000	      0.00000000000000000000
      1.23200000000000000000	    -11.86455828921795200000	     -0.59772435682972136000	     -7.65247217998976480000	      1.02418708670683430000	      1.03923701544237670000	     -0.33796378924269549000	     31.73780801609213100000	      6.49872324144119060000	      5.16498484493063700000	     -8.25910293525954840000	      4.26012862344873700000	     -0.00000000000000000031	      0.00000000000000000046	     -1.23917135301292910000	      3.84774053142096540000	     -0.58960393495973795000	    -48.52755522625248100000	    -13.80703277246166900000	      0.00000000000000000004	      0.00000000000000000094	      3.96819806590766390000	      3.67225271828954410000	     -2.89205044741050800000	    -46.51220157912967300000	    -19.16444384371722300000	    -13.93829942745414000000	    109.59468054077989000000	    107.10117866759705000000	      0.00000000000000000019	     -0.00000000000000000006	    -33.52057952647450600000	    -14.09102442132447300000	     -7.18270388217864040000	    131.22891994376715000000	    101.69019311614143000000	      0.00000000000000000033	     -0.00000000000000000066
      1.23300000000000010000	    -11.84688559135785200000	     -0.62914991760662642000	     -7.64517426311005100000	      1.02412311419214790000	      1.03868575639343550000	     -0.33795999474147131000	     31.70962051926709400000	      6.54029809406401870000	      5.13130959361434250000	     -8.32056799836077770000	      4.24127718769400450000	     -0.00000000000000000118	      0.00000000000000000180	     -1.03384422854185140000	      3.78334381226983400000	     -0.63687152457723373000	    -49.12954674256938900000	    -13.70234699849439000000	      0.00000000000000000003	      0.00000000000000000238	      3.91717180910765480000	      3.72353224109869090000	     -2.85812814045516460000	    -46.41074561341442000000	    -19.18889363887966600000	    -13.91577745128675900000	    109.60850009836113000000	    107.10152496367573000000	      0.00000000000000000064	     -0.00000000000000000154	    -33.52261427809016700000	    -14.08143761426075400000	     -7.13657162424716770000	    131.09334949050665000000	    101.77322412178231000000	      0.00000000000000000100	     -0.00000000000000000157
      1.23400000000000000000	    -11.83099927865703200000	     -0.66025662826583342000	     -7.63693350730590840000	      1.02405669048290470000	      1.03812270754356170000	     -0.33795650552780054000	     31.68461604180764700000	      6.58115045645154860000	      5.09452233766666040000	     -8.39016947736433490000	      4.21403144535493100000	     -0.00000000000000000351	      0.00000000000000000418	     -0.82454569027447133000	      3.71758175824404310000	     -0.68477173884295817000	    -49.73253915123072500000	    -13.59974822549182100000	      0.00000000000000000038	      0.00000000000000000438	      3.86831399205910430000	      3.77430511508269270000	     -2.82482702724114580000	    -46.30779942163307800000	    -19.21435354958577000000	    -13.89186790298905900000	    109.62096295930959000000	    107.10099603715349000000	      0.00000000000000000092	     -0.00000000000000000448	    -33.52524805457539300000	    -14.07124040369342700000	     -7.09114038142416630000	    130.95622799276381000000	    101.85704570498180000000	      0.00000000000000000015	     -0.00000000000000000187
      1.23500000000000010000	    -11.81686863330204700000	     -0.69100427462725234000	     -7.62777194505939260000	      1.02398789924958080000	      1.03754788353673730000	     -0.33795326314376978000	     31.66276221701624000000	      6.62123859048318140000	      5.05466615571701980000	     -8.46788575949894100000	      4.17883599205111710000	     -0.00000000000000000709	      0.00000000000000000777	     -0.61137940431669424000	      3.65049469874207540000	     -0.73324621816251523000	    -50.33636127404761100000	    -13.49903334757434900000	      0.00000000000000000124	      0.00000000000000000720	      3.82161227132308490000	      3.82452079773267160000	     -2.79210676065831760000	    -46.20338031714501200000	    -19.24080224729688700000	    -13.86658629944986400000	    109.63207134402384000000	    107.09959578646779000000	      0.00000000000000000104	     -0.00000000000000000844	    -33.52847554859345500000	    -14.06047971525555700000	     -7.04637440509708760000	    130.81757853241018000000	    101.94159253590358000000	     -0.00000000000000000062	     -0.00000000000000000095
      1.23600000000000000000	    -11.80447093446358400000	     -0.72136850338348446000	     -7.61773246414515090000	      1.02391679171737220000	      1.03696131578430490000	     -0.33795019395694353000	     31.64405544766415800000	      6.66054029166671760000	      5.01166339544553100000	     -8.55373332900348690000	      4.13544864764982200000	     -0.00000000000000000866	      0.00000000000000000850	     -0.39444027495714423000	      3.58210606731329410000	     -0.78226037153134820000	    -50.94084520462160300000	    -13.39998809953010600000	      0.00000000000000000179	      0.00000000000000001118	      3.77705646391449790000	      3.87415232219381700000	     -2.75990491905061890000	    -46.09750353737329900000	    -19.26822134317327300000	    -13.83995292096790700000	    109.64182386708134000000	    107.09732419744070000000	      0.00000000000000000097	     -0.00000000000000001307	    -33.53228255435215000000	    -14.04919727595952800000	     -7.00223096392789120000	    130.67741239784507000000	    102.02680289252386000000	     -0.00000000000000000138	      0.00000000000000000065
      1.23700000000000010000	    -11.79377454520783900000	     -0.75132886453158454000	     -7.60685666437761830000	      1.02384341803745720000	      1.03636304559308370000	     -0.33794722756696688000	     31.62848819850066600000	      6.69903842618623900000	      4.96546585382205570000	     -8.64774026795777040000	      4.08385833959563890000	     -0.00000000000000000916	      0.00000000000000001373	     -0.17383360963792588000	      3.51243777076347640000	     -0.83177851246290313000	    -51.54582298543417100000	    -13.30238894737597700000	      0.00000000000000000183	      0.00000000000000001516	      3.73462515139239310000	      3.92317648524399360000	     -2.72815813453527460000	    -45.99018379773679800000	    -19.29659119463045500000	    -13.81199018619044400000	    109.65021936451754000000	    107.09417860314127000000	      0.00000000000000000104	     -0.00000000000000001747	    -33.53665092335685900000	    -14.03743619080221400000	     -6.95866531048878830000	    130.53573788253394000000	    102.11261474191386000000	     -0.00000000000000000164	      0.00000000000000000172
